# xmcd CD database file
#
# Track frame offsets:
#	150
#	25855
#	50965
#	70285
#	94017
#	117367
#	142860
#	183807
#	204792
#	234667
#
# Disc length: 3387 seconds
#
# Revision: 8
# Processed by: cddbd v1.5.2PL0 Copyright (c) Steve Scherf et al.
# Submitted via: CDex 1.83
#
DISCID=840d390a
DTITLE=Prodigy - The Fat of the Land
DYEAR=1997
DGENRE=Electronic
TTITLE0=Smack My Bitch Up
TTITLE1=Breathe
TTITLE2=Diesel Power
TTITLE3=Funky Shit
TTITLE4=Serial Thrilla
TTITLE5=Mindfields
TTITLE6=Narayan
TTITLE7=Firestarter
TTITLE8=Climbatize
TTITLE9=Fuel My Fire
EXTD=YEAR: 1997
EXTT0=The Prodigy
EXTT1=The Prodigy
EXTT2=The Prodigy
EXTT3=The Prodigy
EXTT4=The Prodigy
EXTT5=The Prodigy
EXTT6=The Prodigy
EXTT7=The Prodigy
EXTT8=The Prodigy
EXTT9=The Prodigy
PLAYORDER=
